HIERARCHY
ROOT Hips
{
  OFFSET 0.0 0.0 0.0
  CHANNELS 6 XPOSITION YPOSITION ZPOSITION ZROTATION XROTATION YROTATION 
  JOINT LeftUpLeg
  {
    OFFSET 0.08945800000000001 -0.0866707 0.0010165200000000001
    CHANNELS 3 ZROTATION XROTATION YROTATION 
    JOINT LeftLeg
    {
      OFFSET 0.0 -0.444227 0.013727000000000001
      CHANNELS 3 ZROTATION XROTATION YROTATION 
      JOINT LeftFoot
      {
        OFFSET -0.0025354900000000005 -0.42092399999999996 -0.014605900000000002
        CHANNELS 3 ZROTATION XROTATION YROTATION 
        End Site
        {
          OFFSET -0.0004 -0.0441509 0.08499100000000001
        }
      }
    }
  }
  JOINT Spine
  {
    OFFSET 0.0 0.118905 0.0
    CHANNELS 3 ZROTATION XROTATION YROTATION 
    JOINT Spine1
    {
      OFFSET 0.0 0.25657399999999997 0.00127663
      CHANNELS 3 ZROTATION XROTATION YROTATION 
      End Site
      {
        OFFSET -0.0029 0.21508359999999999 0.02525291
      }
      JOINT RightArm
      {
        OFFSET -0.162727 -0.05365632 0.0010212299999999997
        CHANNELS 3 ZROTATION XROTATION YROTATION 
        JOINT RightForeArm
        {
          OFFSET -0.26364 0.00099144 -0.0142434
          CHANNELS 3 ZROTATION XROTATION YROTATION 
          End Site
          {
            OFFSET -0.220324 0.0008536199999999999 0.010221599999999999
          }
        }
      }
      JOINT LeftArm
      {
        OFFSET 0.162727 -0.053656319900000006 0.0010212299999999997
        CHANNELS 3 ZROTATION XROTATION YROTATION 
        JOINT LeftForeArm
        {
          OFFSET 0.26259699999999997 0.00099144 -0.0142434
          CHANNELS 3 ZROTATION XROTATION YROTATION 
          End Site
          {
            OFFSET 0.220902 0.0008536199999999999 0.010221599999999999
          }
        }
      }
    }
  }
  JOINT RightUpLeg
  {
    OFFSET -0.08945800000000001 -0.0866707 0.0010165200000000001
    CHANNELS 3 ZROTATION XROTATION YROTATION 
    JOINT RightLeg
    {
      OFFSET 0.0 -0.444227 0.013727000000000001
      CHANNELS 3 ZROTATION XROTATION YROTATION 
      JOINT RightFoot
      {
        OFFSET 0.0025354900000000005 -0.42092399999999996 -0.014605900000000002
        CHANNELS 3 ZROTATION XROTATION YROTATION 
        End Site
        {
          OFFSET 0.0004 -0.0441509 0.08499100000000001
        }
      }
    }
  }
}
MOTION
Frames: 8
Frame Time: 0.033333
-24.66962619999999 0.9481296134699779 -0.28217359999999997 -10.907000165772779 -0.5079230155640314 -96.80970110698088 -5.919900404134356 0.15069499726652022 3.423889947666648 -0.7469729664078664 21.16409929428238 22.90310131546077 -0.4832625642048475 -12.23079754862703 0.04626671092683459 -4.277379927624275 14.6407000236718 -0.029567698818946775 -0.9150069324909929 -1.9352201225413384 -0.7802129891382326 76.45635892755735 -11.415874018374469 -5.904879537489029 6.893869584965719 41.11990055834907 9.996310553167469 -69.57061299883571 2.7971554179642744 -5.564815090884672 -1.8695100741878192 27.220399003028714 -20.243500784738675 -1.367709949688734 -14.716901029147047 4.202300353833379 -2.1315101543339847 65.19509819387717 -15.830799014843992 10.787441973219936 -4.514431034279676 -0.09391098563189614 
-24.690341199999988 0.9497896134699779 -0.27996039999999994 -10.908600137585854 -0.10998599592607981 -96.44410157127761 -5.664879923546297 1.988700076855715 3.579510044933276 -0.8987530032570666 20.364301217946814 22.463699878228216 -0.5255912742038263 -13.151697440267863 0.044688443640672405 -4.17721008080416 14.645499939111026 -0.36713798245296503 -0.4128130048975741 -1.9669200976964254 -1.1453199508084708 76.22314211834727 -11.696768963085828 -6.6592248393322775 6.631440056675489 40.82939895257009 10.315700444041019 -69.27161463772924 3.7391926106521813 -6.922571320518582 -0.8617629932289518 25.470101556510418 -22.409299129036356 -0.8392809986890317 -16.670400018567808 4.042630167832344 -1.7810600849315061 59.9301015136862 -16.155700868377743 10.962569731086356 -5.719195722260355 0.0159279811341499 
-24.71074319999999 0.9505896134699781 -0.2782515 -10.89060002780193 0.17991901550726438 -96.04650259931283 -5.499889873955469 3.8168800360455526 3.7573899421483876 -1.025080019999097 19.45030067114134 22.05560119796183 -0.2287256663461111 -14.020299427207554 0.07287948581589138 -4.171400151141418 14.714199689330307 -0.6264760497309708 0.192998000674619 -2.006969979111853 -1.4349000146580304 75.8829372259781 -13.0529738860045 -6.8193355725347775 6.8467801263935355 41.40709976766435 9.7821200896641 -69.07577945384664 3.295045472606939 -8.232569586815293 -0.03722500121908559 25.49489855829215 -24.424599377614687 -0.5945070291556087 -17.929499288282763 3.5288300412917817 -1.4920899356304875 53.185600481905844 -16.35760126024332 11.501429821691696 -6.404200516762811 0.08957096070330837 
-24.730829199999988 0.9510396134699779 -0.2769948 -10.816399413979852 0.29141300914635593 -95.64970275948093 -5.487730429685554 5.672510098622848 3.852829882968268 -1.1498099464141078 18.227000130413714 21.6514998859072 -0.06126666345288215 -14.74410054996933 0.09208930614516629 -4.3118698216119 14.90830000516373 -0.7556849794159234 1.0222000280468788 -2.1853698244775317 -1.616470028293947 75.51002255767375 -14.884853673290367 -6.64842801780178 7.224990325738767 42.30660153040918 8.900679908405722 -69.0314856770791 2.2198844779008984 -9.390555589831024 0.6653119717431344 26.557500115775003 -26.270000378136242 -0.5754089664626069 -18.714299976748276 2.793520049778535 -1.266069904649774 45.66050103554683 -16.131800328924577 11.419876509228096 -6.263998931217252 0.07489265739332619 
-24.750960199999987 0.9505696134699779 -0.27610749999999995 -10.718900171125211 0.16993399931221975 -95.26939782649463 -5.724959548146199 7.319899219350679 3.8574500790549586 -1.1912799735683692 17.34799918046268 21.308100172553758 -0.28880635816307043 -15.56549739200777 0.07263994227715831 -4.4017901158087644 15.169300316370133 -0.7618929810412303 1.5256099427559713 -2.410670017552749 -1.636880127637826 75.29058224001957 -16.691500180461272 -6.295313641014467 7.50234040227089 43.24760010745642 8.094669775020028 -68.97518442775069 1.7868913589354045 -10.466846553957877 1.2378600494388579 27.27019961981457 -27.78869977027775 -0.7955510326931424 -19.038001424535395 2.014990115301329 -1.0881100728770325 37.809700603521165 -15.64500079394672 11.22963525027573 -6.045397019283701 0.0501949368134514 
-24.772112199999988 0.9486296134699779 -0.27556379999999997 -10.67589986143175 -0.1309439978373342 -94.84020239942936 -6.159190105290229 8.7429998687741 3.871159976266467 -1.1381300027682688 17.192199150400103 20.987999942006528 -0.7005560680255175 -16.64489609220698 0.029366798542866505 -4.2540403174566945 15.341101772110758 -0.7469119749530123 1.3423300339500244 -2.445530022416025 -1.5397999809217902 75.33687726221392 -17.925986863502082 -5.723574727291979 7.631990199322425 43.746101464029806 7.624879972396442 -68.90034604501486 1.8046879504264015 -11.494212873059931 1.6741500153393525 27.770000419877544 -28.84840020491064 -1.2292099350201542 -18.805899643707317 0.9265209238843418 -0.9913480635659312 30.03460257316134 -15.31480042116433 11.39004224293348 -6.202898193336433 0.06834965633357132 
-24.79465019999999 0.9459596134699779 -0.27535989999999994 -10.644200099720075 -0.44881002281424537 -94.26999771694919 -6.570990321199937 10.247199623081315 3.9064502830474535 -1.0453599188619227 17.074999934431855 20.533899937680108 -1.0250923997169676 -17.78989534428958 -0.011251776162243975 -3.870940129552557 15.347598989558731 -0.7811929612015707 0.9423121078019998 -2.241790175229599 -1.4420799308578889 75.50933953875675 -18.13305087838019 -4.954196179085532 7.634810213675994 43.48240152055395 7.634759841030865 -68.88027894923336 2.1889311277994588 -12.277809740684228 1.9747500558061988 28.11730017124706 -29.43320100164713 -1.7050100906699395 -18.210100534859812 -0.93286702339693 -0.8437169931115435 22.91130095755937 -14.992200341380872 11.27183215896807 -6.337999335119285 0.07831187410421837 
-24.818501199999986 0.942946613469978 -0.2755973 -10.4924998907068 -0.6781429623466794 -93.6487988421257 -6.860659924560648 11.881300183892064 3.8908100036217705 -0.8940730430151385 16.600600607892154 20.02269955189238 -1.2007715886371597 -18.892096631032878 -0.03830464468551701 -3.3222599344680317 15.133598917578476 -0.802099049673069 0.7075410036689134 -1.9527199209685573 -1.3345600534389002 75.58957377093688 -17.400224514403888 -4.107104592276326 7.540700452196973 42.79510007494308 8.01077029257653 -68.96538993648089 2.958600385932454 -12.6093240711082 2.0390197880184915 28.19889873371391 -29.509200516541863 -2.10311001432166 -17.696000733769413 -2.5222200267471626 -0.17222499417023013 17.212699963193895 -14.85280130306279 10.902028641830656 -6.171697462320991 0.05447714192287874 
